<svg version="1.0" xmlns="http://www.w3.org/2000/svg" width="256" height="256" viewBox="0 0 256 256"><path d="M122.3 81.1c-2.9 14.9-5.4 27.3-5.6 27.5-.2.2-12-3.6-26.3-8.5-14.2-4.9-26-8.8-26.2-8.6-.2.1 9 8.3 20.3 18 11.3 9.8 20.5 18.2 20.5 18.6 0 .4-9.2 8.8-20.5 18.5-11.2 9.8-20.3 17.9-20.1 18.1.2.2 12-3.7 26.4-8.6 25.2-8.7 26-8.9 26.5-6.8.3 1.2 2.7 13.5 5.3 27.4 2.6 13.9 5 25 5.3 24.8.2-.3 2.8-12.6 5.6-27.3 4-20.5 5.5-26.6 6.6-26.4.8.2 12.6 4.2 26.2 8.9s25 8.4 25.1 8.2c.2-.2-9.1-8.5-20.5-18.4-11.5-9.9-20.9-18.2-20.8-18.5 0-.3 9.4-8.6 20.9-18.4 11.5-9.9 20.8-18.1 20.6-18.3-.1-.2-11.9 3.7-26.2 8.7-14.2 4.9-26.1 8.6-26.5 8.2-.3-.4-2.7-12-5.3-25.7-2.6-13.8-5-25.8-5.4-26.8-.5-1.1-2.7 8.7-5.9 25.4z" fill="#5a67d8"/></svg>